# xmcd
#
# Track frame offsets: 
#        150
#        12950
#        24972
#        38790
#        58177
#        74570
#        91295
#        108417
#        123020
#        145950
#        167455
#        185045
#        202157
#        220035
#
# Disc length: 3280 seconds
#
# Revision: 18
# Processed by: cddbd v1.5.2PL0 Copyright (c) Steve Scherf et al.
# Submitted via: ExactAudioCopy v1.0b6
#
DISCID=c50cce0e
DTITLE=Bruno and Marrone - Acústico Ao Vivo (2001)
DYEAR=2001
DGENRE=Other
TTITLE0=Feriado Nacional
TTITLE1=Dormi Na Praça
TTITLE2=Amor De Carnaval
TTITLE3=Meu Jeito De Sentir
TTITLE4=Seu Amor Ainda É Tudo
TTITLE5=Um Bom Perdedor
TTITLE6=Vida Vazia
TTITLE7=Programa De Fim De Semana
TTITLE8=Pot-Pourri De Boleros - Tenho iúme De Tudo - A Dama De Verelho
TTITLE8=Brigas
TTITLE9=Por Um Minuto
TTITLE10=A Solidão É Uma Ressaca
TTITLE11=Nova Flor (Os Homens Não Devem Chorar)
TTITLE12=Só Pro Meu Prazer
TTITLE13=Pot-Pourri Guarânias - Boate Azul - Sublime Renúncia - Meu Pr
TTITLE13=imeiro Amor
EXTD=YEAR: 2001
EXTT0=
EXTT1=
EXTT2=
EXTT3=
EXTT4=
EXTT5=
EXTT6=
EXTT7=
EXTT8=
EXTT9=
EXTT10=
EXTT11=
EXTT12=
EXTT13=
PLAYORDER=
